<mxfile host="app.diagrams.net" modified="2023-05-12T18:49:02.419Z" agent="Mozilla/5.0 (X11; Linux x86_64) AppleWebKit/537.36 (KHTML, like Gecko) Chrome/113.0.0.0 Safari/537.36" etag="sSr6F6jl-uhIaU2EpunX" version="21.3.0" type="github">
  <diagram name="Page-1" id="Sdwmj_Mz3xiZb8JNueh5">
    <mxGraphModel dx="1434" dy="835" grid="1" gridSize="10" guides="1" tooltips="1" connect="1" arrows="1" fold="1" page="1" pageScale="1" pageWidth="827" pageHeight="1169" math="0" shadow="0">
      <root>
        <mxCell id="0" />
        <mxCell id="1" parent="0" />
        <mxCell id="pgy1IqVf9aCyZ2yaFZdp-5" style="edgeStyle=orthogonalEdgeStyle;rounded=0;orthogonalLoop=1;jettySize=auto;html=1;entryX=0.5;entryY=0;entryDx=0;entryDy=0;" edge="1" parent="1" source="pgy1IqVf9aCyZ2yaFZdp-3" target="pgy1IqVf9aCyZ2yaFZdp-4">
          <mxGeometry relative="1" as="geometry" />
        </mxCell>
        <mxCell id="pgy1IqVf9aCyZ2yaFZdp-7" style="edgeStyle=orthogonalEdgeStyle;rounded=0;orthogonalLoop=1;jettySize=auto;html=1;entryX=0.5;entryY=0;entryDx=0;entryDy=0;" edge="1" parent="1" source="pgy1IqVf9aCyZ2yaFZdp-3" target="pgy1IqVf9aCyZ2yaFZdp-6">
          <mxGeometry relative="1" as="geometry" />
        </mxCell>
        <mxCell id="pgy1IqVf9aCyZ2yaFZdp-9" style="edgeStyle=orthogonalEdgeStyle;rounded=0;orthogonalLoop=1;jettySize=auto;html=1;entryX=0.5;entryY=0;entryDx=0;entryDy=0;" edge="1" parent="1" source="pgy1IqVf9aCyZ2yaFZdp-3" target="pgy1IqVf9aCyZ2yaFZdp-8">
          <mxGeometry relative="1" as="geometry" />
        </mxCell>
        <mxCell id="pgy1IqVf9aCyZ2yaFZdp-3" value="Association" style="rounded=0;whiteSpace=wrap;html=1;" vertex="1" parent="1">
          <mxGeometry x="354" y="200" width="120" height="60" as="geometry" />
        </mxCell>
        <mxCell id="pgy1IqVf9aCyZ2yaFZdp-4" value="Extract Relations from Policy Engine" style="rounded=0;whiteSpace=wrap;html=1;" vertex="1" parent="1">
          <mxGeometry x="120" y="350" width="120" height="60" as="geometry" />
        </mxCell>
        <mxCell id="pgy1IqVf9aCyZ2yaFZdp-6" value="Transform Relations from Policy Engine to&amp;nbsp;Materialized View&amp;nbsp;" style="rounded=0;whiteSpace=wrap;html=1;" vertex="1" parent="1">
          <mxGeometry x="354" y="350" width="120" height="60" as="geometry" />
        </mxCell>
        <mxCell id="pgy1IqVf9aCyZ2yaFZdp-8" value="Query&amp;nbsp;Materialized View&amp;nbsp;" style="rounded=0;whiteSpace=wrap;html=1;" vertex="1" parent="1">
          <mxGeometry x="590" y="350" width="120" height="60" as="geometry" />
        </mxCell>
      </root>
    </mxGraphModel>
  </diagram>
</mxfile>
